# xmcd CD database file
#
# Track frame offsets:
#	150
#	27572
#	52195
#	73360
#	91600
#	114785
#	136545
#	162655
#	181365
#	199185
#
# Disc length: 2904 seconds
#
# Revision: 2
# Processed by: cddbd v1.5.1PL0 Copyright (c) Steve Scherf et al.
# Submitted via: CDex 1.51
#
DISCID=8a0b560a
DTITLE=Yasuhiro Yamane - Back to the time
DYEAR=1900
DGENRE=Pop
TTITLE0=BACK TO THE TIME
TTITLE1=Good-bye Love Road
TTITLE2=Get Along Together−愛を贈りたいから−
TTITLE3=お元気ですか？
TTITLE4=おちこぼれのMerry X'mas
TTITLE5=聞かないで
TTITLE6=夏の日の中
TTITLE7=君がいるから
TTITLE8=抱きしめて
TTITLE9=時の河を越えて
EXTD=
EXTT0=
EXTT1=
EXTT2=
EXTT3=
EXTT4=
EXTT5=
EXTT6=
EXTT7=
EXTT8=
EXTT9=
PLAYORDER=
